<svg viewBox="0 0 1000 750" xmlns="http://www.w3.org/2000/svg">
  <polygon points="1000,0 1000,375 971,143" fill="rgb(196,50,58)" stroke="rgb(196,50,58)" stroke-width="0.3"/>
  <polygon points="0,750 0,375 14,435" fill="rgb(77,50,176)" stroke="rgb(77,50,176)" stroke-width="0.3"/>
  <polygon points="83,527 0,750 14,435" fill="rgb(60,50,193)" stroke="rgb(60,50,193)" stroke-width="0.3"/>
  <polygon points="0,0 500,0 166,50" fill="rgb(249,50,5)" stroke="rgb(249,50,5)" stroke-width="0.3"/>
  <polygon points="500,0 213,98 166,50" fill="rgb(238,50,16)" stroke="rgb(238,50,16)" stroke-width="0.3"/>
  <polygon points="1000,750 500,750 577,662" fill="rgb(9,50,244)" stroke="rgb(9,50,244)" stroke-width="0.3"/>
  <polygon points="500,750 481,733 577,662" fill="rgb(11,50,242)" stroke="rgb(11,50,242)" stroke-width="0.3"/>
  <polygon points="1000,750 577,662 612,635" fill="rgb(22,50,231)" stroke="rgb(22,50,231)" stroke-width="0.3"/>
  <polygon points="433,471 481,733 292,658" fill="rgb(43,50,210)" stroke="rgb(43,50,210)" stroke-width="0.3"/>
  <polygon points="433,471 183,463 282,317" fill="rgb(112,50,141)" stroke="rgb(112,50,141)" stroke-width="0.3"/>
  <polygon points="470,298 433,471 282,317" fill="rgb(131,50,122)" stroke="rgb(131,50,122)" stroke-width="0.3"/>
  <polygon points="0,375 0,0 68,75" fill="rgb(203,50,50)" stroke="rgb(203,50,50)" stroke-width="0.3"/>
  <polygon points="0,0 166,50 68,75" fill="rgb(240,50,13)" stroke="rgb(240,50,13)" stroke-width="0.3"/>
  <polygon points="166,50 213,98 68,75" fill="rgb(229,50,24)" stroke="rgb(229,50,24)" stroke-width="0.3"/>
  <polygon points="500,0 1000,0 716,50" fill="rgb(249,50,5)" stroke="rgb(249,50,5)" stroke-width="0.3"/>
  <polygon points="1000,0 842,102 716,50" fill="rgb(237,50,16)" stroke="rgb(237,50,16)" stroke-width="0.3"/>
  <polygon points="842,102 787,141 716,50" fill="rgb(221,50,32)" stroke="rgb(221,50,32)" stroke-width="0.3"/>
  <polygon points="1000,0 971,143 943,94" fill="rgb(227,50,26)" stroke="rgb(227,50,26)" stroke-width="0.3"/>
  <polygon points="971,143 842,102 943,94" fill="rgb(216,50,38)" stroke="rgb(216,50,38)" stroke-width="0.3"/>
  <polygon points="842,102 1000,0 943,94" fill="rgb(232,50,21)" stroke="rgb(232,50,21)" stroke-width="0.3"/>
  <polygon points="481,733 500,750 233,715" fill="rgb(5,50,248)" stroke="rgb(5,50,248)" stroke-width="0.3"/>
  <polygon points="292,658 481,733 233,715" fill="rgb(15,50,238)" stroke="rgb(15,50,238)" stroke-width="0.3"/>
  <polygon points="223,700 292,658 233,715" fill="rgb(19,50,234)" stroke="rgb(19,50,234)" stroke-width="0.3"/>
  <polygon points="14,435 0,375 121,388" fill="rgb(119,50,135)" stroke="rgb(119,50,135)" stroke-width="0.3"/>
  <polygon points="183,463 83,527 121,388" fill="rgb(98,50,155)" stroke="rgb(98,50,155)" stroke-width="0.3"/>
  <polygon points="83,527 14,435 121,388" fill="rgb(101,50,152)" stroke="rgb(101,50,152)" stroke-width="0.3"/>
  <polygon points="213,98 282,317 121,388" fill="rgb(163,50,90)" stroke="rgb(163,50,90)" stroke-width="0.3"/>
  <polygon points="282,317 183,463 121,388" fill="rgb(122,50,131)" stroke="rgb(122,50,131)" stroke-width="0.3"/>
  <polygon points="0,375 68,75 121,388" fill="rgb(159,50,94)" stroke="rgb(159,50,94)" stroke-width="0.3"/>
  <polygon points="68,75 213,98 121,388" fill="rgb(191,50,63)" stroke="rgb(191,50,63)" stroke-width="0.3"/>
  <polygon points="213,98 500,0 385,125" fill="rgb(229,50,24)" stroke="rgb(229,50,24)" stroke-width="0.3"/>
  <polygon points="470,298 282,317 356,157" fill="rgb(167,50,87)" stroke="rgb(167,50,87)" stroke-width="0.3"/>
  <polygon points="385,125 470,298 356,157" fill="rgb(189,50,65)" stroke="rgb(189,50,65)" stroke-width="0.3"/>
  <polygon points="282,317 213,98 356,157" fill="rgb(190,50,64)" stroke="rgb(190,50,64)" stroke-width="0.3"/>
  <polygon points="213,98 385,125 356,157" fill="rgb(211,50,42)" stroke="rgb(211,50,42)" stroke-width="0.3"/>
  <polygon points="605,607 433,471 652,393" fill="rgb(88,50,166)" stroke="rgb(88,50,166)" stroke-width="0.3"/>
  <polygon points="697,265 751,313 652,393" fill="rgb(144,50,109)" stroke="rgb(144,50,109)" stroke-width="0.3"/>
  <polygon points="433,471 470,298 652,393" fill="rgb(123,50,131)" stroke="rgb(123,50,131)" stroke-width="0.3"/>
  <polygon points="470,298 697,265 652,393" fill="rgb(146,50,107)" stroke="rgb(146,50,107)" stroke-width="0.3"/>
  <polygon points="183,463 433,471 197,530" fill="rgb(88,50,165)" stroke="rgb(88,50,165)" stroke-width="0.3"/>
  <polygon points="0,750 83,527 116,534" fill="rgb(49,50,204)" stroke="rgb(49,50,204)" stroke-width="0.3"/>
  <polygon points="83,527 183,463 116,534" fill="rgb(81,50,172)" stroke="rgb(81,50,172)" stroke-width="0.3"/>
  <polygon points="183,463 197,530 116,534" fill="rgb(81,50,172)" stroke="rgb(81,50,172)" stroke-width="0.3"/>
  <polygon points="971,143 1000,375 968,184" fill="rgb(175,50,79)" stroke="rgb(175,50,79)" stroke-width="0.3"/>
  <polygon points="842,102 971,143 968,184" fill="rgb(206,50,48)" stroke="rgb(206,50,48)" stroke-width="0.3"/>
  <polygon points="787,141 842,102 968,184" fill="rgb(206,50,47)" stroke="rgb(206,50,47)" stroke-width="0.3"/>
  <polygon points="751,313 787,141 968,184" fill="rgb(182,50,71)" stroke="rgb(182,50,71)" stroke-width="0.3"/>
  <polygon points="1000,375 1000,750 780,363" fill="rgb(86,50,168)" stroke="rgb(86,50,168)" stroke-width="0.3"/>
  <polygon points="1000,750 612,635 780,363" fill="rgb(56,50,197)" stroke="rgb(56,50,197)" stroke-width="0.3"/>
  <polygon points="612,635 605,607 780,363" fill="rgb(72,50,181)" stroke="rgb(72,50,181)" stroke-width="0.3"/>
  <polygon points="605,607 652,393 780,363" fill="rgb(100,50,154)" stroke="rgb(100,50,154)" stroke-width="0.3"/>
  <polygon points="652,393 751,313 780,363" fill="rgb(133,50,120)" stroke="rgb(133,50,120)" stroke-width="0.3"/>
  <polygon points="751,313 968,184 780,363" fill="rgb(157,50,96)" stroke="rgb(157,50,96)" stroke-width="0.3"/>
  <polygon points="968,184 1000,375 780,363" fill="rgb(150,50,104)" stroke="rgb(150,50,104)" stroke-width="0.3"/>
  <polygon points="697,265 470,298 636,119" fill="rgb(177,50,76)" stroke="rgb(177,50,76)" stroke-width="0.3"/>
  <polygon points="500,0 716,50 636,119" fill="rgb(235,50,18)" stroke="rgb(235,50,18)" stroke-width="0.3"/>
  <polygon points="470,298 385,125 636,119" fill="rgb(193,50,60)" stroke="rgb(193,50,60)" stroke-width="0.3"/>
  <polygon points="385,125 500,0 636,119" fill="rgb(227,50,27)" stroke="rgb(227,50,27)" stroke-width="0.3"/>
  <polygon points="481,733 433,471 577,631" fill="rgb(46,50,207)" stroke="rgb(46,50,207)" stroke-width="0.3"/>
  <polygon points="577,662 481,733 577,631" fill="rgb(25,50,229)" stroke="rgb(25,50,229)" stroke-width="0.3"/>
  <polygon points="433,471 605,607 577,631" fill="rgb(61,50,193)" stroke="rgb(61,50,193)" stroke-width="0.3"/>
  <polygon points="605,607 612,635 577,631" fill="rgb(42,50,211)" stroke="rgb(42,50,211)" stroke-width="0.3"/>
  <polygon points="612,635 577,662 577,631" fill="rgb(36,50,217)" stroke="rgb(36,50,217)" stroke-width="0.3"/>
  <polygon points="751,313 697,265 747,170" fill="rgb(170,50,84)" stroke="rgb(170,50,84)" stroke-width="0.3"/>
  <polygon points="787,141 751,313 747,170" fill="rgb(183,50,70)" stroke="rgb(183,50,70)" stroke-width="0.3"/>
  <polygon points="697,265 636,119 747,170" fill="rgb(192,50,62)" stroke="rgb(192,50,62)" stroke-width="0.3"/>
  <polygon points="716,50 787,141 747,170" fill="rgb(213,50,40)" stroke="rgb(213,50,40)" stroke-width="0.3"/>
  <polygon points="636,119 716,50 747,170" fill="rgb(216,50,38)" stroke="rgb(216,50,38)" stroke-width="0.3"/>
  <polygon points="223,700 233,715 195,700" fill="rgb(14,50,239)" stroke="rgb(14,50,239)" stroke-width="0.3"/>
  <polygon points="233,715 0,750 195,700" fill="rgb(9,50,244)" stroke="rgb(9,50,244)" stroke-width="0.3"/>
  <polygon points="0,750 116,534 195,700" fill="rgb(29,50,224)" stroke="rgb(29,50,224)" stroke-width="0.3"/>
  <polygon points="433,471 292,658 214,564" fill="rgb(62,50,191)" stroke="rgb(62,50,191)" stroke-width="0.3"/>
  <polygon points="197,530 433,471 214,564" fill="rgb(77,50,176)" stroke="rgb(77,50,176)" stroke-width="0.3"/>
  <polygon points="292,658 223,700 214,564" fill="rgb(37,50,217)" stroke="rgb(37,50,217)" stroke-width="0.3"/>
  <polygon points="223,700 195,700 214,564" fill="rgb(32,50,222)" stroke="rgb(32,50,222)" stroke-width="0.3"/>
  <polygon points="116,534 197,530 214,564" fill="rgb(70,50,183)" stroke="rgb(70,50,183)" stroke-width="0.3"/>
  <polygon points="195,700 116,534 214,564" fill="rgb(50,50,203)" stroke="rgb(50,50,203)" stroke-width="0.3"/>
</svg>